<?xml version="1.0" standalone="no"?>
<!DOCTYPE svg PUBLIC "-//W3C//DTD SVG 20010904//EN"
 "http://www.w3.org/TR/2001/REC-SVG-20010904/DTD/svg10.dtd">
<svg version="1.0" xmlns="http://www.w3.org/2000/svg"
 width="283.000000pt" height="467.000000pt" viewBox="0 0 283.000000 467.000000"
 preserveAspectRatio="xMidYMid meet">
<metadata>
Created by potrace 1.16, written by Peter Selinger 2001-2019
</metadata>
<g transform="translate(0.000000,467.000000) scale(0.100000,-0.100000)"
fill="#000000" stroke="none">
<path d="M0 2340 l0 -2330 1415 0 1415 0 0 2330 0 2330 -1415 0 -1415 0 0
-2330z m1675 1538 c3 -13 66 -277 141 -588 213 -888 391 -1636 539 -2260 75
-316 139 -583 141 -592 5 -17 -13 -18 -290 -18 -163 0 -296 1 -296 3 -1 1 -24
121 -53 267 l-52 265 -345 0 -345 0 -52 -265 c-29 -146 -52 -266 -53 -267 0
-2 -133 -3 -295 -3 l-295 0 5 23 c3 12 50 211 106 442 55 231 154 645 219 920
65 275 191 802 279 1170 88 369 172 720 186 780 14 61 29 118 31 128 5 15 24
17 214 17 209 0 210 0 215 -22z"/>
<path d="M1450 2663 c0 -12 -49 -272 -110 -578 -60 -306 -110 -561 -110 -566
0 -5 97 -9 231 -9 l231 0 -4 28 c-3 15 -53 275 -113 577 -97 492 -125 616
-125 548z"/>
</g>
</svg>
