<?xml version="1.0" standalone="no"?>
<!DOCTYPE svg PUBLIC "-//W3C//DTD SVG 20010904//EN"
 "http://www.w3.org/TR/2001/REC-SVG-20010904/DTD/svg10.dtd">
<svg version="1.0" xmlns="http://www.w3.org/2000/svg"
 width="283.000000pt" height="467.000000pt" viewBox="0 0 283.000000 467.000000"
 preserveAspectRatio="xMidYMid meet">
<metadata>
Created by potrace 1.16, written by Peter Selinger 2001-2019
</metadata>
<g transform="translate(0.000000,467.000000) scale(0.100000,-0.100000)"
fill="#000000" stroke="none">
<path d="M4 4661 c-2 -2 -4 -1052 -4 -2333 l0 -2328 1415 0 1415 0 0 2333 0
2332 -1411 0 c-776 0 -1413 -2 -1415 -4z m1705 -782 c323 -30 532 -187 612
-459 19 -65 22 -109 28 -325 10 -397 -4 -506 -83 -629 -72 -112 -205 -204
-346 -240 -30 -8 -48 -16 -40 -19 8 -3 44 -12 80 -22 111 -28 188 -72 271
-155 89 -88 129 -163 154 -287 14 -70 16 -135 13 -430 -4 -318 -6 -355 -26
-426 -65 -237 -221 -390 -468 -459 -76 -22 -97 -22 -636 -26 l-558 -3 -1 118
c-3 355 -4 3350 -1 3361 5 16 832 17 1001 1z"/>
<path d="M1307 3324 c-2 -5 -4 -198 -3 -429 l1 -420 105 -3 c206 -6 279 22
330 124 24 47 25 57 28 280 4 267 -4 327 -50 380 -54 62 -76 68 -249 72 -86 2
-159 0 -162 -4z"/>
<path d="M1306 1912 c-2 -4 -4 -219 -3 -477 l2 -470 175 0 c173 0 176 0 222
27 34 21 53 41 72 80 l26 52 0 291 c0 340 -6 373 -74 441 -24 25 -58 46 -81
53 -45 12 -331 15 -339 3z"/>
</g>
</svg>
