<?xml version="1.0" standalone="no"?>
<!DOCTYPE svg PUBLIC "-//W3C//DTD SVG 20010904//EN"
 "http://www.w3.org/TR/2001/REC-SVG-20010904/DTD/svg10.dtd">
<svg version="1.0" xmlns="http://www.w3.org/2000/svg"
 width="283.000000pt" height="467.000000pt" viewBox="0 0 283.000000 467.000000"
 preserveAspectRatio="xMidYMid meet">
<metadata>
Created by potrace 1.16, written by Peter Selinger 2001-2019
</metadata>
<g transform="translate(0.000000,467.000000) scale(0.100000,-0.100000)"
fill="#000000" stroke="none">
<path d="M0 2333 l0 -2333 1415 0 1415 0 0 2333 0 2332 -1415 0 -1415 0 0
-2332z m1805 1558 c260 -68 427 -218 516 -461 46 -128 61 -239 63 -470 l1
-205 -300 0 -300 0 -5 195 c-5 182 -7 198 -30 243 -34 67 -78 103 -144 118
-86 19 -159 0 -213 -56 -76 -80 -73 -30 -73 -1112 0 -1083 -3 -1032 74 -1109
112 -113 318 -69 369 79 6 18 13 120 16 227 l6 195 300 0 300 0 3 -120 c4
-161 -13 -366 -38 -467 -99 -391 -410 -602 -855 -581 -447 22 -720 278 -774
728 -14 117 -15 1951 -1 2085 33 316 190 556 435 665 130 57 235 75 420 71
111 -3 171 -9 230 -25z"/>
</g>
</svg>
