<?xml version="1.0" standalone="no"?>
<!DOCTYPE svg PUBLIC "-//W3C//DTD SVG 20010904//EN"
 "http://www.w3.org/TR/2001/REC-SVG-20010904/DTD/svg10.dtd">
<svg version="1.0" xmlns="http://www.w3.org/2000/svg"
 width="282.000000pt" height="467.000000pt" viewBox="0 0 282.000000 467.000000"
 preserveAspectRatio="xMidYMid meet">
<metadata>
Created by potrace 1.16, written by Peter Selinger 2001-2019
</metadata>
<g transform="translate(0.000000,467.000000) scale(0.100000,-0.100000)"
fill="#000000" stroke="none">
<path d="M0 2330 l0 -2330 1410 0 1410 0 0 2330 0 2330 -1410 0 -1410 0 0
-2330z m2308 1268 c1 -159 -1 -288 -5 -289 -5 0 -249 -2 -543 -2 l-535 -2 0
-440 0 -440 473 -3 472 -2 -2 -288 -3 -287 -473 -3 -472 -2 2 -428 3 -427 540
-5 540 -5 0 -285 0 -285 -880 0 -880 0 -3 1730 c-1 952 0 1736 3 1743 3 10
185 12 882 10 l878 -3 3 -287z"/>
</g>
</svg>
