<?xml version="1.0" standalone="no"?>
<!DOCTYPE svg PUBLIC "-//W3C//DTD SVG 20010904//EN"
 "http://www.w3.org/TR/2001/REC-SVG-20010904/DTD/svg10.dtd">
<svg version="1.0" xmlns="http://www.w3.org/2000/svg"
 width="281.000000pt" height="467.000000pt" viewBox="0 0 281.000000 467.000000"
 preserveAspectRatio="xMidYMid meet">
<metadata>
Created by potrace 1.16, written by Peter Selinger 2001-2019
</metadata>
<g transform="translate(0.000000,467.000000) scale(0.100000,-0.100000)"
fill="#000000" stroke="none">
<path d="M0 2340 l0 -2330 1405 0 1405 0 0 2330 0 2330 -1405 0 -1405 0 0
-2330z m2340 1275 l0 -285 -550 0 -550 0 0 -465 0 -465 480 0 480 0 0 -285 0
-285 -480 0 -480 0 0 -705 0 -705 -345 0 -345 0 0 1740 0 1740 895 0 895 0 0
-285z"/>
</g>
</svg>
