<?xml version="1.0" standalone="no"?>
<!DOCTYPE svg PUBLIC "-//W3C//DTD SVG 20010904//EN"
 "http://www.w3.org/TR/2001/REC-SVG-20010904/DTD/svg10.dtd">
<svg version="1.0" xmlns="http://www.w3.org/2000/svg"
 width="281.000000pt" height="465.000000pt" viewBox="0 0 281.000000 465.000000"
 preserveAspectRatio="xMidYMid meet">
<metadata>
Created by potrace 1.16, written by Peter Selinger 2001-2019
</metadata>
<g transform="translate(0.000000,465.000000) scale(0.100000,-0.100000)"
fill="#000000" stroke="none">
<path d="M0 2330 l0 -2320 1405 0 1405 0 0 2320 0 2320 -1405 0 -1405 0 0
-2320z m1555 1575 c327 -53 545 -226 642 -508 41 -120 52 -207 53 -419 l0
-198 -319 0 -318 0 -6 173 c-6 186 -14 227 -60 282 -48 58 -99 80 -192 80 -67
0 -89 -4 -130 -25 -55 -28 -107 -95 -125 -158 -6 -24 -10 -375 -10 -1002 0
-1089 -5 -1010 79 -1082 52 -45 113 -62 216 -62 128 1 218 52 262 149 15 35
18 77 21 313 l3 272 -155 0 -156 0 0 285 0 285 460 0 460 0 0 -582 c0 -605 -2
-645 -44 -781 -109 -348 -423 -547 -866 -547 -287 0 -512 75 -678 225 -102 93
-168 207 -215 372 -22 78 -22 79 -25 1098 -2 739 0 1044 8 1109 41 304 182
517 425 639 169 84 447 119 670 82z"/>
</g>
</svg>
