<?xml version="1.0" standalone="no"?>
<!DOCTYPE svg PUBLIC "-//W3C//DTD SVG 20010904//EN"
 "http://www.w3.org/TR/2001/REC-SVG-20010904/DTD/svg10.dtd">
<svg version="1.0" xmlns="http://www.w3.org/2000/svg"
 width="287.000000pt" height="473.000000pt" viewBox="0 0 287.000000 473.000000"
 preserveAspectRatio="xMidYMid meet">
<metadata>
Created by potrace 1.16, written by Peter Selinger 2001-2019
</metadata>
<g transform="translate(0.000000,473.000000) scale(0.100000,-0.100000)"
fill="#000000" stroke="none">
<path d="M5 4718 c-3 -7 -4 -1070 -3 -2363 l3 -2350 1433 -3 1432 -2 0 2365 0
2365 -1430 0 c-1135 0 -1432 -3 -1435 -12z m1925 -1033 l0 -265 -120 0 -120 0
0 -1245 0 -1245 120 0 120 0 0 -265 0 -265 -565 0 -565 0 0 265 0 265 140 0
140 0 0 1245 0 1245 -140 0 -140 0 0 265 0 265 565 0 565 0 0 -265z"/>
</g>
</svg>
