<?xml version="1.0" standalone="no"?>
<!DOCTYPE svg PUBLIC "-//W3C//DTD SVG 20010904//EN"
 "http://www.w3.org/TR/2001/REC-SVG-20010904/DTD/svg10.dtd">
<svg version="1.0" xmlns="http://www.w3.org/2000/svg"
 width="282.000000pt" height="467.000000pt" viewBox="0 0 282.000000 467.000000"
 preserveAspectRatio="xMidYMid meet">
<metadata>
Created by potrace 1.16, written by Peter Selinger 2001-2019
</metadata>
<g transform="translate(0.000000,467.000000) scale(0.100000,-0.100000)"
fill="#000000" stroke="none">
<path d="M0 2330 l0 -2330 1410 0 1410 0 0 2330 0 2330 -1410 0 -1410 0 0
-2330z m2210 168 c0 -868 -4 -1417 -10 -1473 -37 -329 -227 -541 -565 -632
-93 -25 -115 -27 -300 -27 -185 0 -207 2 -297 26 -109 30 -237 87 -319 141
-52 36 -189 164 -189 177 0 6 262 259 398 384 l32 30 38 -35 c64 -62 109 -90
173 -110 161 -50 322 7 363 128 14 42 16 194 16 1403 0 746 3 1360 7 1363 3 4
152 7 330 7 l323 0 0 -1382z"/>
</g>
</svg>
