<?xml version="1.0" standalone="no"?>
<!DOCTYPE svg PUBLIC "-//W3C//DTD SVG 20010904//EN"
 "http://www.w3.org/TR/2001/REC-SVG-20010904/DTD/svg10.dtd">
<svg version="1.0" xmlns="http://www.w3.org/2000/svg"
 width="283.000000pt" height="467.000000pt" viewBox="0 0 283.000000 467.000000"
 preserveAspectRatio="xMidYMid meet">
<metadata>
Created by potrace 1.16, written by Peter Selinger 2001-2019
</metadata>
<g transform="translate(0.000000,467.000000) scale(0.100000,-0.100000)"
fill="#000000" stroke="none">
<path d="M0 2330 l0 -2330 1415 0 1415 0 0 2330 0 2330 -1415 0 -1415 0 0
-2330z m1108 785 l3 -760 53 145 c29 80 153 423 276 763 l224 617 333 0 c192
0 333 -4 333 -9 0 -9 -61 -143 -476 -1042 -90 -196 -164 -363 -164 -371 0 -9
96 -276 214 -594 466 -1262 536 -1452 536 -1463 0 -8 -92 -11 -320 -11 l-320
0 -10 23 c-6 12 -102 319 -215 681 -113 363 -207 661 -210 664 -2 3 -13 -15
-24 -39 -10 -24 -65 -143 -122 -264 l-104 -220 -5 -420 -5 -420 -295 0 -295 0
-3 1730 c-1 952 0 1736 3 1743 3 10 68 12 297 10 l293 -3 3 -760z"/>
</g>
</svg>
