<?xml version="1.0" standalone="no"?>
<!DOCTYPE svg PUBLIC "-//W3C//DTD SVG 20010904//EN"
 "http://www.w3.org/TR/2001/REC-SVG-20010904/DTD/svg10.dtd">
<svg version="1.0" xmlns="http://www.w3.org/2000/svg"
 width="283.000000pt" height="467.000000pt" viewBox="0 0 283.000000 467.000000"
 preserveAspectRatio="xMidYMid meet">
<metadata>
Created by potrace 1.16, written by Peter Selinger 2001-2019
</metadata>
<g transform="translate(0.000000,467.000000) scale(0.100000,-0.100000)"
fill="#000000" stroke="none">
<path d="M10 2330 l0 -2330 1410 0 1410 0 0 2330 0 2330 -1410 0 -1410 0 0
-2330z m789 1533 c5 -10 43 -133 86 -273 42 -140 110 -363 150 -495 40 -132
131 -427 200 -655 70 -228 131 -422 135 -430 6 -10 12 1 23 35 8 28 85 275
171 550 87 275 189 601 227 725 39 124 94 299 123 390 l52 165 277 3 277 2 0
-1745 0 -1745 -262 2 -263 3 -5 1064 -5 1064 -56 -184 c-31 -101 -134 -442
-230 -756 l-174 -573 -151 0 -151 0 -126 403 c-69 221 -170 544 -224 717 l-98
314 -5 -1024 -5 -1025 -267 -3 c-250 -2 -268 -1 -269 15 -3 58 -5 3459 -2
3466 2 4 130 7 283 7 256 0 280 -1 289 -17z"/>
</g>
</svg>
