<?xml version="1.0" standalone="no"?>
<!DOCTYPE svg PUBLIC "-//W3C//DTD SVG 20010904//EN"
 "http://www.w3.org/TR/2001/REC-SVG-20010904/DTD/svg10.dtd">
<svg version="1.0" xmlns="http://www.w3.org/2000/svg"
 width="283.000000pt" height="467.000000pt" viewBox="0 0 283.000000 467.000000"
 preserveAspectRatio="xMidYMid meet">
<metadata>
Created by potrace 1.16, written by Peter Selinger 2001-2019
</metadata>
<g transform="translate(0.000000,467.000000) scale(0.100000,-0.100000)"
fill="#000000" stroke="none">
<path d="M0 2330 l0 -2330 1410 0 1410 0 0 2330 0 2330 -1410 0 -1410 0 0
-2330z m1615 1569 c109 -14 247 -57 333 -105 132 -74 254 -216 307 -359 59
-156 58 -124 62 -1200 5 -1240 4 -1266 -93 -1465 -82 -166 -233 -293 -431
-359 -140 -47 -400 -65 -566 -40 -382 58 -622 276 -683 622 -21 120 -21 2163
0 2282 67 377 341 604 766 633 118 8 175 6 305 -9z"/>
<path d="M1315 3308 c-95 -34 -158 -117 -174 -228 -11 -82 -12 -1723 -1 -1851
9 -110 29 -159 86 -209 47 -41 87 -58 156 -66 124 -15 240 39 293 136 l30 55
3 969 c3 1086 6 1035 -68 1119 -53 60 -123 87 -223 86 -40 0 -85 -5 -102 -11z"/>
</g>
</svg>
