<?xml version="1.0" standalone="no"?>
<!DOCTYPE svg PUBLIC "-//W3C//DTD SVG 20010904//EN"
 "http://www.w3.org/TR/2001/REC-SVG-20010904/DTD/svg10.dtd">
<svg version="1.0" xmlns="http://www.w3.org/2000/svg"
 width="283.000000pt" height="467.000000pt" viewBox="0 0 283.000000 467.000000"
 preserveAspectRatio="xMidYMid meet">
<metadata>
Created by potrace 1.16, written by Peter Selinger 2001-2019
</metadata>
<g transform="translate(0.000000,467.000000) scale(0.100000,-0.100000)"
fill="#000000" stroke="none">
<path d="M0 2330 l0 -2330 1415 0 1415 0 0 2330 0 2330 -1415 0 -1415 0 0
-2330z m1675 1536 c331 -44 547 -222 627 -516 22 -83 23 -95 23 -545 0 -515 0
-516 -74 -670 -66 -138 -162 -233 -308 -302 -139 -67 -188 -75 -480 -80 l-263
-5 -2 -676 -3 -677 -297 -3 -298 -2 0 1745 0 1745 488 0 c351 0 515 -4 587
-14z"/>
<path d="M1200 2815 l0 -495 178 0 c232 1 269 16 324 135 22 47 23 64 26 315
5 337 -6 398 -81 478 -48 50 -104 62 -289 62 l-158 0 0 -495z"/>
</g>
</svg>
