<?xml version="1.0" standalone="no"?>
<!DOCTYPE svg PUBLIC "-//W3C//DTD SVG 20010904//EN"
 "http://www.w3.org/TR/2001/REC-SVG-20010904/DTD/svg10.dtd">
<svg version="1.0" xmlns="http://www.w3.org/2000/svg"
 width="283.000000pt" height="467.000000pt" viewBox="0 0 283.000000 467.000000"
 preserveAspectRatio="xMidYMid meet">
<metadata>
Created by potrace 1.16, written by Peter Selinger 2001-2019
</metadata>
<g transform="translate(0.000000,467.000000) scale(0.100000,-0.100000)"
fill="#000000" stroke="none">
<path d="M0 2330 l0 -2330 1415 0 1415 0 0 2330 0 2330 -1415 0 -1415 0 0
-2330z m1598 1569 c299 -36 538 -207 633 -453 64 -166 62 -124 66 -1216 4
-914 -1 -1207 -22 -1261 -4 -10 54 -70 162 -173 93 -87 169 -164 171 -170 4
-16 -358 -431 -375 -431 -7 0 -78 62 -158 138 -80 75 -148 137 -153 137 -5 0
-26 -9 -48 -19 -136 -66 -308 -95 -518 -89 -184 6 -302 31 -431 93 -154 74
-271 190 -337 335 -79 172 -78 152 -78 1346 0 1136 0 1141 54 1288 69 191 226
347 421 421 171 64 379 82 613 54z"/>
<path d="M1294 3306 c-83 -27 -150 -104 -169 -195 -10 -45 -9 -1909 0 -1953
17 -78 80 -154 149 -183 39 -16 136 -30 136 -19 0 4 -48 53 -107 109 l-106
101 154 174 c85 96 172 194 194 218 l40 43 53 -46 52 -47 0 789 c0 867 1 851
-60 926 -18 20 -52 49 -78 64 -38 23 -59 27 -131 30 -53 2 -102 -2 -127 -11z"/>
</g>
</svg>
