<?xml version="1.0" standalone="no"?>
<!DOCTYPE svg PUBLIC "-//W3C//DTD SVG 20010904//EN"
 "http://www.w3.org/TR/2001/REC-SVG-20010904/DTD/svg10.dtd">
<svg version="1.0" xmlns="http://www.w3.org/2000/svg"
 width="283.000000pt" height="467.000000pt" viewBox="0 0 283.000000 467.000000"
 preserveAspectRatio="xMidYMid meet">
<metadata>
Created by potrace 1.16, written by Peter Selinger 2001-2019
</metadata>
<g transform="translate(0.000000,467.000000) scale(0.100000,-0.100000)"
fill="#000000" stroke="none">
<path d="M0 2330 l0 -2330 1415 0 1415 0 0 2330 0 2330 -1415 0 -1415 0 0
-2330z m1588 1535 c213 -32 353 -96 478 -220 65 -64 90 -97 123 -165 72 -148
82 -207 88 -510 8 -397 -12 -545 -93 -700 -69 -130 -144 -208 -272 -281 -29
-16 -51 -33 -49 -37 3 -4 38 -110 80 -237 41 -126 154 -471 251 -766 97 -294
176 -541 176 -547 0 -9 -74 -12 -317 -10 l-317 3 -97 330 c-53 182 -149 510
-214 730 -64 220 -119 403 -121 407 -3 5 -48 8 -100 8 l-94 0 -2 -737 -3 -738
-290 0 -290 0 -3 1730 c-1 952 0 1736 3 1743 7 19 931 17 1063 -3z"/>
<path d="M1110 2875 l0 -436 198 3 c214 3 240 9 297 66 51 51 55 74 55 351 0
286 -7 326 -62 382 -61 60 -75 64 -290 67 l-198 4 0 -437z"/>
</g>
</svg>
