<?xml version="1.0" standalone="no"?>
<!DOCTYPE svg PUBLIC "-//W3C//DTD SVG 20010904//EN"
 "http://www.w3.org/TR/2001/REC-SVG-20010904/DTD/svg10.dtd">
<svg version="1.0" xmlns="http://www.w3.org/2000/svg"
 width="283.000000pt" height="467.000000pt" viewBox="0 0 283.000000 467.000000"
 preserveAspectRatio="xMidYMid meet">
<metadata>
Created by potrace 1.16, written by Peter Selinger 2001-2019
</metadata>
<g transform="translate(0.000000,467.000000) scale(0.100000,-0.100000)"
fill="#000000" stroke="none">
<path d="M0 2330 l0 -2330 1415 0 1415 0 0 2330 0 2330 -1415 0 -1415 0 0
-2330z m1669 1564 c296 -53 504 -234 591 -514 32 -104 50 -251 50 -416 l0
-101 -187 -6 c-104 -4 -239 -7 -300 -7 l-113 0 0 134 c0 155 -14 214 -66 275
-46 53 -101 74 -196 74 -125 0 -209 -53 -248 -156 -16 -45 -17 -374 -1 -422
18 -54 79 -132 138 -177 27 -20 143 -86 258 -146 232 -120 282 -149 388 -221
70 -47 161 -135 204 -197 38 -53 91 -167 107 -229 49 -193 47 -662 -4 -858
-81 -309 -312 -507 -651 -557 -123 -18 -349 -8 -458 20 -255 67 -434 217 -522
437 -50 125 -69 235 -69 414 l0 156 53 7 c28 3 161 6 295 6 l242 0 0 -118 c0
-155 16 -211 79 -274 35 -35 61 -50 105 -63 119 -35 250 -1 307 78 50 69 59
120 59 332 0 251 -6 274 -104 370 -64 64 -93 82 -301 190 -367 191 -484 278
-589 440 -64 97 -98 175 -122 281 -16 66 -19 121 -19 334 0 236 2 262 24 345
62 237 187 397 386 494 183 90 426 117 664 75z"/>
</g>
</svg>
