<?xml version="1.0" standalone="no"?>
<!DOCTYPE svg PUBLIC "-//W3C//DTD SVG 20010904//EN"
 "http://www.w3.org/TR/2001/REC-SVG-20010904/DTD/svg10.dtd">
<svg version="1.0" xmlns="http://www.w3.org/2000/svg"
 width="282.000000pt" height="467.000000pt" viewBox="0 0 282.000000 467.000000"
 preserveAspectRatio="xMidYMid meet">
<metadata>
Created by potrace 1.16, written by Peter Selinger 2001-2019
</metadata>
<g transform="translate(0.000000,467.000000) scale(0.100000,-0.100000)"
fill="#000000" stroke="none">
<path d="M0 2330 l0 -2330 1410 0 1410 0 0 2330 0 2330 -1410 0 -1410 0 0
-2330z m1059 1413 c70 -442 128 -805 171 -1083 56 -357 117 -750 154 -984 14
-87 27 -161 30 -163 6 -6 10 16 66 377 28 179 57 366 65 415 8 50 67 420 130
824 64 404 118 738 121 743 3 4 165 8 361 8 l355 0 -5 -27 c-3 -16 -31 -147
-62 -293 -30 -146 -89 -425 -130 -620 -41 -195 -102 -485 -135 -645 -118 -562
-242 -1153 -295 -1410 -47 -228 -83 -398 -100 -472 l-5 -23 -364 0 -364 0 -12
52 c-19 86 -191 910 -270 1288 -66 320 -362 1726 -405 1930 -20 91 -38 177
-41 193 l-6 27 360 0 359 0 22 -137z"/>
</g>
</svg>
