<?xml version="1.0" standalone="no"?>
<!DOCTYPE svg PUBLIC "-//W3C//DTD SVG 20010904//EN"
 "http://www.w3.org/TR/2001/REC-SVG-20010904/DTD/svg10.dtd">
<svg version="1.0" xmlns="http://www.w3.org/2000/svg"
 width="283.000000pt" height="467.000000pt" viewBox="0 0 283.000000 467.000000"
 preserveAspectRatio="xMidYMid meet">
<metadata>
Created by potrace 1.16, written by Peter Selinger 2001-2019
</metadata>
<g transform="translate(0.000000,467.000000) scale(0.100000,-0.100000)"
fill="#000000" stroke="none">
<path d="M0 2330 l0 -2330 1415 0 1415 0 0 2330 0 2330 -1415 0 -1415 0 0
-2330z m647 1250 c7 -91 37 -511 68 -935 79 -1092 78 -1081 86 -1059 4 10 24
129 44 264 20 135 61 400 90 590 30 190 86 552 125 805 39 253 73 470 76 483
l4 22 212 -2 212 -3 7 -35 c4 -19 80 -508 170 -1087 90 -579 165 -1050 168
-1047 5 4 22 232 110 1469 23 314 44 600 47 638 l7 67 279 0 280 0 -6 -27 c-3
-16 -26 -190 -51 -388 -25 -198 -70 -551 -100 -785 -30 -234 -97 -762 -150
-1175 -52 -412 -98 -767 -101 -787 l-6 -38 -263 0 -263 0 -6 28 c-5 25 -57
355 -241 1531 -41 260 -76 476 -79 478 -3 3 -7 -10 -10 -28 -24 -140 -165
-976 -210 -1239 -30 -179 -71 -425 -92 -547 l-38 -223 -100 -1 c-191 -1 -421
2 -425 6 -4 5 -411 3148 -411 3178 0 16 18 17 277 15 l278 -3 12 -165z"/>
</g>
</svg>
