<?xml version="1.0" standalone="no"?>
<!DOCTYPE svg PUBLIC "-//W3C//DTD SVG 20010904//EN"
 "http://www.w3.org/TR/2001/REC-SVG-20010904/DTD/svg10.dtd">
<svg version="1.0" xmlns="http://www.w3.org/2000/svg"
 width="282.000000pt" height="467.000000pt" viewBox="0 0 282.000000 467.000000"
 preserveAspectRatio="xMidYMid meet">
<metadata>
Created by potrace 1.16, written by Peter Selinger 2001-2019
</metadata>
<g transform="translate(0.000000,467.000000) scale(0.100000,-0.100000)"
fill="#000000" stroke="none">
<path d="M0 2330 l0 -2330 1410 0 1410 0 0 2330 0 2330 -1410 0 -1410 0 0
-2330z m1282 1060 c89 -269 166 -490 169 -490 4 0 44 114 89 253 44 138 116
358 159 487 l77 235 344 3 c190 1 350 0 357 -2 8 -4 7 -15 -7 -43 -15 -33
-125 -277 -275 -613 -100 -224 -260 -581 -355 -790 -55 -124 -102 -232 -102
-240 -1 -11 615 -1377 776 -1720 14 -30 26 -61 26 -67 0 -19 -693 -19 -707 0
-9 11 -232 615 -336 910 -23 64 -45 117 -48 117 -3 0 -84 -228 -179 -508 -95
-279 -178 -513 -183 -519 -7 -10 -91 -13 -358 -13 -192 0 -349 4 -349 9 0 10
214 478 685 1501 107 232 103 221 87 260 -7 19 -68 159 -134 310 -66 151 -148
340 -183 420 -187 429 -313 719 -366 839 -32 73 -59 137 -59 142 0 5 159 9
354 9 l354 0 164 -490z"/>
</g>
</svg>
