<?xml version="1.0" standalone="no"?>
<!DOCTYPE svg PUBLIC "-//W3C//DTD SVG 20010904//EN"
 "http://www.w3.org/TR/2001/REC-SVG-20010904/DTD/svg10.dtd">
<svg version="1.0" xmlns="http://www.w3.org/2000/svg"
 width="282.000000pt" height="467.000000pt" viewBox="0 0 282.000000 467.000000"
 preserveAspectRatio="xMidYMid meet">
<metadata>
Created by potrace 1.16, written by Peter Selinger 2001-2019
</metadata>
<g transform="translate(0.000000,467.000000) scale(0.100000,-0.100000)"
fill="#000000" stroke="none">
<path d="M0 2330 l0 -2330 1410 0 1410 0 0 2330 0 2330 -1410 0 -1410 0 0
-2330z m2258 1273 c-3 -278 -3 -278 -30 -333 -25 -53 -97 -211 -393 -870 -75
-168 -166 -369 -201 -448 -71 -156 -282 -629 -375 -839 -33 -73 -59 -137 -59
-143 0 -7 182 -10 545 -10 l545 0 0 -285 0 -285 -927 2 -928 3 -3 260 -2 260
131 290 c73 159 147 323 166 363 18 41 33 75 33 77 0 2 18 41 39 87 22 46 94
205 161 353 144 319 198 439 399 883 83 183 151 335 151 338 0 2 -231 5 -512
6 l-513 3 0 275 c0 151 1 278 3 283 2 4 401 7 888 7 l885 0 -3 -277z"/>
</g>
</svg>
